<?xml version="1.0" encoding="utf-8"?>
<!-- Generator: Adobe Illustrator 25.0.0, SVG Export Plug-In . SVG Version: 6.00 Build 0)  -->
<svg version="1.1" id="Layer_1" xmlns="http://www.w3.org/2000/svg" xmlns:xlink="http://www.w3.org/1999/xlink" x="0px" y="0px"
	 viewBox="0 0 164 50" style="enable-background:new 0 0 164 50;" xml:space="preserve">
<style type="text/css">
	.st0{fill:#2CB1BC;}
	.st1{fill:none;}
	.st2{fill:#FFFFFF;}
	.st3{font-family:'Aharoni-Bold';}
	.st4{font-size:40px;}
</style>
<g>
	<path class="st0" d="M70.7,17.3H65v20.9h-6.9V17.3h-5.6v-5.8h18.3V17.3z"/>
	<path class="st0" d="M86.8,26c-0.9-0.4-1.8-0.6-2.7-0.6c-2.1,0-3.5,0.9-4.1,2.6c-0.2,0.6-0.4,1.5-0.4,2.5v7.8h-6.4V20.1h6.4v3
		c0.7-1.1,1.4-1.8,2.2-2.3c1.1-0.6,2.3-0.9,3.7-0.9c0.3,0,0.8,0,1.2,0.1V26z"/>
	<path class="st0" d="M110.1,38.2h-6.4v-2c-0.6,0.8-1.2,1.3-1.9,1.7c-1.1,0.6-2.3,0.9-3.7,0.9c-2.2,0-4.3-0.8-6-2.3
		c-2.1-1.8-3.1-4.3-3.1-7.3c0-3.1,1.1-5.6,3.2-7.4c1.7-1.5,3.7-2.2,5.9-2.2c1.3,0,2.5,0.3,3.6,0.8c0.6,0.3,1.3,0.8,2,1.5v-1.8h6.4
		V38.2z M103.8,29.1c0-1.1-0.4-2.1-1.2-2.9c-0.8-0.8-1.8-1.2-2.9-1.2c-1.3,0-2.3,0.5-3.1,1.4c-0.7,0.8-1,1.7-1,2.7s0.3,1.9,1,2.7
		c0.8,1,1.8,1.4,3.1,1.4c1.2,0,2.1-0.4,2.9-1.2C103.4,31.3,103.8,30.3,103.8,29.1z"/>
	<path class="st0" d="M128.1,37.8c-1.3,0.7-2.7,1-4.2,1c-3.3,0-5.9-1.1-7.9-3.4c-1.6-1.8-2.3-3.9-2.3-6.3c0-2.4,0.8-4.5,2.3-6.3
		c1.9-2.2,4.6-3.4,7.9-3.4c1.5,0,2.9,0.3,4.2,1V26c-1.1-0.8-2.2-1.2-3.3-1.2c-1.3,0-2.3,0.4-3.2,1.2c-0.8,0.8-1.2,1.9-1.2,3.1
		s0.4,2.3,1.2,3.1c0.8,0.8,1.9,1.2,3.2,1.2c1.1,0,2.2-0.4,3.3-1.2V37.8z"/>
	<path class="st0" d="M154.2,38.2h-9l-7.1-7.4v7.4h-6.4V8.9h6.4v17.7l6.7-6.5h8.8l-9.1,8.4L154.2,38.2z"/>
</g>
<path class="st0" d="M41.8,48.8H8.3c-3.8,0-6.8-3-6.8-6.8V8.5c0-3.8,3-6.8,6.8-6.8h33.5c3.8,0,6.8,3,6.8,6.8V42
	C48.6,45.8,45.6,48.8,41.8,48.8z"/>
<rect x="15.7" y="8.6" class="st1" width="32.3" height="32.7"/>
<text transform="matrix(1 0 0 1 15.6877 37.9552)" class="st2 st3 st4">J</text>
</svg>
